<svg xmlns="http://www.w3.org/2000/svg" id="Layer_1" viewBox="0 0 303.4 100.2">
  <style>
    .st0{fill:#002051}.st1{fill:#00a82d}
  </style>
  <path d="M135 33.7h-1.5c-7.4 0-13.8 2.1-19 6V9.4h-12.3v89.7h10.7l.8-5.1c5.2 4.2 12 6.3 19.9 6.3h.2c9-.1 16.7-3.2 22.2-9 5.6-6 8.6-14.4 8.6-24.3.1-19.7-11.5-32.6-29.6-33.3zm-.9 56.1h-.5c-10.8 0-17.4-8.7-17.4-22.8 0-14.1 6.7-22.8 17.6-22.8h1.1c10.1.6 16.3 9.2 16.3 22.7-.1 13.9-6.6 22.6-17.1 22.9zM199.1 33.7c-9.1 0-16.9 3.1-22.5 9.1-5.6 6-8.6 14.4-8.6 24.3 0 20.3 9.9 33.4 31.2 33.4 9.1 0 16.9-3.1 22.5-9 5.6-6 8.6-14.4 8.6-24.3 0-20.4-12.3-33.5-31.2-33.5zm0 56.1c-10.8 0-17.4-8.7-17.4-22.8 0-14.1 6.7-22.8 17.6-22.8 10.8 0 17.4 8.7 17.4 22.8 0 14.1-6.8 22.8-17.6 22.8zM246.8 70.1c.1 12.9 6.7 19.7 18.7 19.7 11.8 0 18.7-6.5 19.3-7.2l5.3 8.7s-8.5 9-26.2 9-30.3-12.2-30.3-33.1c0-21.1 13.2-33.4 30.3-33.4 17.2 0 27.3 12.9 27.3 31.2l-.1 5.1h-44.3zm16.7-26.5c-11.2 0-16.1 9.2-16.7 17h32.1c0-8.7-4.3-17-15.4-17z" class="st0"/>
  <path d="M78.8 39.6l-8-8 3.5-3.6 4.5-4.5 8.1 8.1zM78.8 16.3l-8-8 4.6-4.6L78.8.2l8.1 8.1zM90.5 28l-8.1-8.1 4.5-4.4 3.6-3.6 8 8z" class="st1"/>
  <path d="M43.3 88c-18 0-29.7-14.5-29.7-35.7s12.3-35.7 30.1-35.7c13.1 0 18.9 6.6 23.4 11.4l8-8.1C70.9 15.5 62.4 4.8 43.3 4.8 19.8 4.8-.4 22.5-.4 52.4c0 30 18.1 47.8 43.1 47.8 18.6 0 28.7-9.8 32.6-14.9L67 77c-3.6 4.2-11.4 11-23.7 11zM297.4 45.9c-3.3 0-6-2.6-6-6s2.7-6 6-6c3.4 0 6 2.6 6 6 0 3.3-2.6 6-6 6zm0-11.2c-2.9 0-5.2 2.3-5.2 5.2 0 2.9 2.3 5.2 5.2 5.2 2.9 0 5.2-2.3 5.2-5.2 0-2.9-2.3-5.2-5.2-5.2zm1.5 8.6l-1.6-2.7h-.9v2.7h-1.2v-6.9h2.4c1.2 0 2.4.7 2.4 2.1 0 1.4-1.1 1.9-1.4 1.9l1.7 2.9h-1.4zm-1.4-6h-1v2.3h1c.8 0 1.3-.4 1.3-1.2-.1-.7-.6-1.1-1.3-1.1z" class="st0"/>
</svg>