<?xml version="1.0" encoding="utf-8"?>
<!-- Generator: Adobe Illustrator 21.1.0, SVG Export Plug-In . SVG Version: 6.00 Build 0)  -->
<svg version="1.1" id="Layer_1" xmlns="http://www.w3.org/2000/svg" xmlns:xlink="http://www.w3.org/1999/xlink" x="0px" y="0px"
	 viewBox="0 0 33.9 33.9" style="enable-background:new 0 0 33.9 33.9;" xml:space="preserve">
<style type="text/css">
	.st0{fill:#002051;}
	.st1{fill:#FFFFFF;}
</style>
<g>
	<path class="st0" d="M17,32.5c-8.5,0-15.5-7-15.5-15.5S8.5,1.5,17,1.5s15.5,7,15.5,15.5S25.5,32.5,17,32.5z"/>
	<path class="st1" d="M17,2c8.3,0,15,6.7,15,15s-6.7,15-15,15S2,25.3,2,17S8.7,2,17,2 M17,1C8.2,1,1,8.2,1,17s7.2,16,16,16
		s16-7.2,16-16S25.8,1,17,1L17,1z"/>
</g>
<title>close</title>
<g id="Layer_2">
	<g id="Layer_1-2">
		<path id="close" class="st1" d="M7.1,10.4l3.3-3.3l16.5,16.5l-3.3,3.3L7.1,10.4z M7.1,23.6L23.6,7.1l3.3,3.3L10.4,26.8L7.1,23.6z"
			/>
	</g>
</g>
</svg>
