<svg xmlns="http://www.w3.org/2000/svg" viewBox="0 0 19.88 28.6"><defs><style>.cls-1{fill:#333;}</style></defs><title>lock</title><g id="Layer_2" data-name="Layer 2"><g id="Layer_1-2" data-name="Layer 1"><path id="edit_over_copy" data-name="edit over copy" class="cls-1" d="M10.23,3.52h0c-1.88,0-3.83,1.35-3.83,3.2V12.3h7.14V6.72a3.15,3.15,0,0,0-3.09-3.2ZM19.88,26c0,1.22-.84,2.6-2.08,2.6H2.61A2.93,2.93,0,0,1,0,26V14.21C0,13,1.37,12.3,2.61,12.3h.7V6.47A6.69,6.69,0,0,1,10.23,0h.09a6.3,6.3,0,0,1,6.51,6.09q0,.19,0,.37V12.3h1a1.85,1.85,0,0,1,2.08,1.91V26Z"/></g></g></svg>