<?xml version="1.0" encoding="utf-8"?>
<!-- Generator: Adobe Illustrator 21.1.0, SVG Export Plug-In . SVG Version: 6.00 Build 0)  -->
<svg version="1.1" id="Layer_1" xmlns="http://www.w3.org/2000/svg" xmlns:xlink="http://www.w3.org/1999/xlink" x="0px" y="0px"
	 viewBox="0 0 45 44" style="enable-background:new 0 0 45 44;" xml:space="preserve">
<style type="text/css">
	.st0{fill:#002051;}
</style>
<title>search</title>
<g id="Layer_2">
	<g id="Layer_1-2">
		<path id="MagnGlass" class="st0" d="M28.3,4.7c-6.5-6.3-16.9-6.3-23.4,0C-1.5,10.9-1.6,21,4.5,27.3l0.3,0.3
			c5.7,5.5,14.5,6.3,21.1,1.9L40.7,44l4.3-4.2L30.2,25.3C34.7,18.9,33.9,10.2,28.3,4.7 M24.5,24c-4.4,4.3-11.5,4.3-15.9,0
			C4.3,19.8,4.2,13,8.3,8.7c0,0,0,0,0,0l0.2-0.2c4.4-4.3,11.5-4.3,15.9,0c4.3,4.2,4.4,11,0.2,15.3L24.5,24"/>
	</g>
</g>
</svg>
